<svg xmlns="http://www.w3.org/2000/svg" viewBox="0 0 568 501" fill="#0085ff">
  <path d="M123.121 33.664C188.241 82.553 258.281 181.68 284 234.873c25.719-53.192 95.759-152.32 160.879-201.209C491.866-1.611 568-28.906 568 57.947c0 17.346-9.945 145.713-15.778 166.555-20.275 72.453-94.155 90.933-159.875 79.748C507.222 323.8 536.444 388.478 473.333 453c-120.395 123.61-172.837-31.013-186.152-70.478-2.412-7.119-3.843-10.956-3.181-10.956.662 0-1.431 3.498-3.844 10.617C266.841 421.987 214.399 576.61 93.667 453 30.556 388.478 59.778 323.8 175.653 304.25c-65.72 11.185-139.6-7.295-159.875-79.748C9.945 203.66 0 75.293 0 57.947 0-28.906 76.134-1.611 123.121 33.664z"/>
</svg>
